<svg width="24" height="24" viewBox="0 0 24 24" fill="none" xmlns="http://www.w3.org/2000/svg">
<path d="M4.98292 7.19631C6.19132 7.19631 7.17092 6.21671 7.17092 5.00831C7.17092 3.79991 6.19132 2.82031 4.98292 2.82031C3.77452 2.82031 2.79492 3.79991 2.79492 5.00831C2.79492 6.21671 3.77452 7.19631 4.98292 7.19631Z" fill="white"/>
<path d="M9.23575 8.85469V20.9937H13.0047V14.9907C13.0047 13.4067 13.3027 11.8727 15.2667 11.8727C17.2037 11.8727 17.2277 13.6837 17.2277 15.0907V20.9947H20.9988V14.3377C20.9988 11.0677 20.2948 8.55469 16.4728 8.55469C14.6378 8.55469 13.4078 9.56169 12.9047 10.5147H12.8537V8.85469H9.23575ZM3.09375 8.85469H6.86875V20.9937H3.09375V8.85469Z" fill="white"/>
</svg>
