<svg width="24" height="24" viewBox="0 0 24 24" fill="none" xmlns="http://www.w3.org/2000/svg">
<path fill-rule="evenodd" clip-rule="evenodd" d="M12 2C17.5228 2 22 6.47716 22 12C22 17.5228 17.5228 22 12 22C6.47716 22 2 17.5228 2 12C2 6.47716 6.47716 2 12 2Z" stroke="white" stroke-width="1.5" stroke-linecap="round" stroke-linejoin="round"/>
<path fill-rule="evenodd" clip-rule="evenodd" d="M15.0502 12.4673C14.3212 13.2533 12.3372 14.5833 11.3222 15.0103C11.1602 15.0783 10.7472 15.2223 10.6582 15.2243C10.4692 15.2303 10.2872 15.1243 10.1992 14.9543C10.1652 14.8883 10.0652 14.4573 10.0332 14.2653C9.93815 13.6813 9.88915 12.7743 9.89015 11.8623C9.88915 10.9053 9.94215 9.95532 10.0482 9.37732C10.0762 9.22132 10.1582 8.86232 10.1822 8.80432C10.2272 8.69632 10.3092 8.61132 10.4082 8.55832C10.4842 8.51732 10.5712 8.49532 10.6582 8.49832C10.7472 8.50032 11.1092 8.62732 11.2332 8.67632C12.2112 9.05632 14.2802 10.4343 15.0402 11.2443C15.1082 11.3173 15.2952 11.5133 15.3262 11.5533C15.3972 11.6433 15.4322 11.7523 15.4322 11.8623C15.4322 11.9643 15.4012 12.0683 15.3372 12.1553C15.3042 12.2003 15.1132 12.4003 15.0502 12.4673Z" stroke="white" stroke-width="1.5" stroke-linecap="round" stroke-linejoin="round"/>
</svg>
