<svg width="24" height="24" viewBox="0 0 24 24" fill="none" xmlns="http://www.w3.org/2000/svg">
<path d="M22.5 11.934C22.5 11.8824 22.5 11.8238 22.4977 11.7559C22.4953 11.566 22.4906 11.3527 22.4859 11.1254C22.4672 10.4715 22.4344 9.81993 22.3828 9.20587C22.3125 8.35977 22.2094 7.6543 22.0687 7.12461C21.9204 6.57184 21.6295 6.0677 21.2252 5.66257C20.8209 5.25745 20.3173 4.96554 19.7648 4.81602C19.1016 4.63789 17.8031 4.52773 15.975 4.45977C15.1055 4.42695 14.175 4.40586 13.2445 4.39414C12.9187 4.38945 12.6164 4.38711 12.3445 4.38477H11.6555C11.3836 4.38711 11.0813 4.38945 10.7555 4.39414C9.825 4.40586 8.89453 4.42695 8.025 4.45977C6.19687 4.53008 4.89609 4.64023 4.23516 4.81602C3.6825 4.96517 3.17876 5.25696 2.7744 5.66214C2.37004 6.06732 2.07928 6.57166 1.93125 7.12461C1.78828 7.6543 1.6875 8.35977 1.61719 9.20587C1.56562 9.81993 1.53281 10.4715 1.51406 11.1254C1.50703 11.3527 1.50469 11.566 1.50234 11.7559C1.50234 11.8238 1.5 11.8824 1.5 11.934V12.0652C1.5 12.1168 1.5 12.1754 1.50234 12.2434C1.50469 12.4332 1.50937 12.6465 1.51406 12.8738C1.53281 13.5278 1.56562 14.1793 1.61719 14.7934C1.6875 15.6395 1.79063 16.3449 1.93125 16.8746C2.23125 17.9973 3.1125 18.8832 4.23516 19.1832C4.89609 19.3614 6.19687 19.4715 8.025 19.5395C8.89453 19.5723 9.825 19.5934 10.7555 19.6051C11.0813 19.6098 11.3836 19.6121 11.6555 19.6145H12.3445C12.6164 19.6121 12.9187 19.6098 13.2445 19.6051C14.175 19.5934 15.1055 19.5723 15.975 19.5395C17.8031 19.4692 19.1039 19.359 19.7648 19.1832C20.8875 18.8832 21.7687 17.9996 22.0687 16.8746C22.2117 16.3449 22.3125 15.6395 22.3828 14.7934C22.4344 14.1793 22.4672 13.5278 22.4859 12.8738C22.493 12.6465 22.4953 12.4332 22.4977 12.2434C22.4977 12.1754 22.5 12.1168 22.5 12.0652V11.934ZM20.8125 12.0559C20.8125 12.1051 20.8125 12.159 20.8102 12.2223C20.8078 12.4051 20.8031 12.6067 20.7984 12.8246C20.782 13.4481 20.7492 14.0715 20.7 14.6504C20.6367 15.4051 20.5477 16.0239 20.4375 16.4387C20.2922 16.9801 19.8656 17.409 19.3266 17.552C18.8344 17.6832 17.5945 17.7887 15.9094 17.852C15.0562 17.8848 14.1375 17.9059 13.2211 17.9176C12.9 17.9223 12.6023 17.9246 12.3352 17.9246H11.6648L10.7789 17.9176C9.8625 17.9059 8.94609 17.8848 8.09063 17.852C6.40547 17.7864 5.16328 17.6832 4.67344 17.552C4.13437 17.4067 3.70781 16.9801 3.5625 16.4387C3.45234 16.0239 3.36328 15.4051 3.3 14.6504C3.25078 14.0715 3.22031 13.4481 3.20156 12.8246C3.19453 12.6067 3.19219 12.4028 3.18984 12.2223C3.18984 12.159 3.1875 12.1028 3.1875 12.0559V11.9434C3.1875 11.8942 3.1875 11.8402 3.18984 11.777C3.19219 11.5942 3.19688 11.3926 3.20156 11.1746C3.21797 10.5512 3.25078 9.92775 3.3 9.34884C3.36328 8.59415 3.45234 7.9754 3.5625 7.56055C3.70781 7.01915 4.13437 6.59024 4.67344 6.44727C5.16562 6.31602 6.40547 6.21055 8.09063 6.14727C8.94375 6.11446 9.8625 6.09336 10.7789 6.08164C11.1 6.07696 11.3977 6.07461 11.6648 6.07461H12.3352L13.2211 6.08164C14.1375 6.09336 15.0539 6.11446 15.9094 6.14727C17.5945 6.21289 18.8367 6.31602 19.3266 6.44727C19.8656 6.59258 20.2922 7.01915 20.4375 7.56055C20.5477 7.9754 20.6367 8.59415 20.7 9.34884C20.7492 9.92775 20.7797 10.5512 20.7984 11.1746C20.8055 11.3926 20.8078 11.5965 20.8102 11.777C20.8102 11.8402 20.8125 11.8965 20.8125 11.9434V12.0559ZM9.91406 15.1403L15.3516 11.9762L9.91406 8.85899V15.1403Z" fill="white"/>
</svg>
